<?xml version="1.0" encoding="utf-8"?>
<!-- Generator: Adobe Illustrator 19.0.0, SVG Export Plug-In . SVG Version: 6.00 Build 0)  -->
<svg version="1.1" id="Capa_1" xmlns="http://www.w3.org/2000/svg" xmlns:xlink="http://www.w3.org/1999/xlink" x="0px" y="0px"
	 viewBox="0 0 180 80" style="enable-background:new 0 0 180 80;" xml:space="preserve">
<style type="text/css">
	.st0{fill:#2980B9;}
</style>
<g id="XMLID_3_">
	<path id="XMLID_4_" class="st0" d="M9.1,62.8c-2.9-1.7-5.1-4.1-6.7-7.2C0.8,52.5,0,48.8,0,44.5V14.7h9.3V45c0,3.4,0.9,6.2,2.6,8.3
		c1.7,2.1,4.2,3.1,7.4,3.1c3.2,0,5.6-1,7.4-3.1c1.7-2.1,2.6-4.9,2.6-8.3V14.7h9.3v29.8c0,4.1-0.8,7.7-2.4,10.9
		c-1.6,3.1-3.8,5.6-6.7,7.3c-2.9,1.8-6.3,2.6-10.2,2.6S12,64.5,9.1,62.8z"/>
	<path id="XMLID_6_" class="st0" d="M50.7,62.7c-2.7-1.8-4.5-4-5.6-6.8l8.1-3.5c0.7,1.7,1.8,2.9,3.1,3.8c1.4,0.9,2.9,1.3,4.7,1.3
		c1.7,0,3-0.3,4.1-0.8c1.1-0.5,1.7-1.4,1.7-2.6c0-1.2-0.5-2-1.5-2.6c-1-0.6-2.5-1.1-4.6-1.6l-4.1-0.9c-2.9-0.7-5.2-1.9-7.1-3.8
		c-1.9-1.8-2.8-4.1-2.8-6.8c0-2,0.6-3.8,1.8-5.5c1.2-1.6,2.9-2.9,5-3.7c2.1-0.9,4.4-1.3,6.9-1.3c7.3,0,12.1,2.6,14.6,7.7l-7.7,3.4
		c-1.4-2.5-3.6-3.7-6.6-3.7c-1.6,0-2.8,0.3-3.7,0.9c-0.9,0.6-1.4,1.3-1.4,2.2c0,1.7,1.6,2.9,4.7,3.7l5.2,1.2c3.5,0.9,6.1,2.2,7.9,4
		c1.8,1.8,2.7,4,2.7,6.6c0,2.3-0.7,4.3-2,6c-1.3,1.7-3.1,3.1-5.4,4c-2.3,1-4.8,1.5-7.6,1.5C56.8,65.3,53.3,64.4,50.7,62.7z"/>
	<path id="XMLID_8_" class="st0" d="M90,62.9c-2.8-1.6-5-3.8-6.6-6.7c-1.6-2.8-2.4-6-2.4-9.6c0-3.4,0.8-6.5,2.3-9.4
		c1.6-2.9,3.7-5.2,6.5-6.9c2.8-1.7,5.9-2.6,9.3-2.6c3.6,0,6.8,0.8,9.4,2.4c2.6,1.6,4.6,3.7,6,6.4c1.4,2.7,2,5.7,2,9.1
		c0,1.1-0.1,2.1-0.2,3H89.8c0.5,2.8,1.6,4.9,3.4,6.4s3.9,2.2,6.4,2.2c2.1,0,3.9-0.4,5.4-1.3c1.5-0.9,2.7-2.1,3.6-3.6l7.3,3.6
		c-3.6,6.3-9.1,9.4-16.4,9.4C95.9,65.3,92.8,64.5,90,62.9z M107.8,42.3c-0.1-1.1-0.5-2.2-1.2-3.3c-0.7-1.1-1.7-2-3-2.7
		c-1.3-0.7-2.8-1.1-4.5-1.1c-2.2,0-4,0.6-5.6,1.9c-1.5,1.3-2.7,3-3.4,5.2H107.8z"/>
	<path id="XMLID_11_" class="st0" d="M123.5,28.9h8.5v4.7h0.6c0.9-1.7,2.2-3,4.1-4.1s3.9-1.6,6.1-1.6c1.6,0,3.1,0.3,4.4,0.8v9.1
		c-1.2-0.5-2.3-0.8-3.1-1c-0.9-0.2-1.8-0.3-2.7-0.3c-2.7,0-4.8,1-6.4,2.9c-1.6,1.9-2.4,4.4-2.4,7.3v17.6h-9.1V28.9z"/>
	<path id="XMLID_13_" class="st0" d="M154.7,62.7c-2.7-1.8-4.5-4-5.6-6.8l8.1-3.5c0.7,1.7,1.8,2.9,3.1,3.8c1.4,0.9,2.9,1.3,4.7,1.3
		c1.7,0,3-0.3,4.1-0.8c1.1-0.5,1.7-1.4,1.7-2.6c0-1.2-0.5-2-1.5-2.6c-1-0.6-2.5-1.1-4.6-1.6l-4.1-0.9c-2.9-0.7-5.2-1.9-7.1-3.8
		c-1.9-1.8-2.8-4.1-2.8-6.8c0-2,0.6-3.8,1.8-5.5c1.2-1.6,2.9-2.9,5-3.7c2.1-0.9,4.4-1.3,6.9-1.3c7.3,0,12.1,2.6,14.6,7.7l-7.7,3.4
		c-1.4-2.5-3.6-3.7-6.6-3.7c-1.6,0-2.8,0.3-3.7,0.9c-0.9,0.6-1.4,1.3-1.4,2.2c0,1.7,1.6,2.9,4.7,3.7l5.2,1.2c3.5,0.9,6.1,2.2,7.9,4
		c1.8,1.8,2.7,4,2.7,6.6c0,2.3-0.7,4.3-2,6c-1.3,1.7-3.1,3.1-5.4,4c-2.3,1-4.8,1.5-7.6,1.5C160.8,65.3,157.3,64.4,154.7,62.7z"/>
</g>
</svg>
